<?xml version="1.0" standalone="no"?>
<!DOCTYPE svg PUBLIC "-//W3C//DTD SVG 20010904//EN"
 "http://www.w3.org/TR/2001/REC-SVG-20010904/DTD/svg10.dtd">
<svg version="1.0" xmlns="http://www.w3.org/2000/svg"
 width="260.000000pt" height="260.000000pt" viewBox="0 0 260.000000 260.000000"
 preserveAspectRatio="xMidYMid meet">
<metadata>
Created by potrace 1.11, written by Peter Selinger 2001-2013
</metadata>
<g transform="translate(0.000000,260.000000) scale(0.100000,-0.100000)"
fill="#000000" stroke="none">
<path d="M560 1336 l0 -886 245 0 245 0 0 279 c0 301 -2 288 55 287 31 -1 69
-45 320 -366 44 -56 98 -124 119 -151 l40 -49 298 0 c164 0 298 2 298 5 0 2
-19 26 -42 53 -44 49 -84 97 -199 232 -35 41 -66 77 -69 80 -3 3 -28 32 -55
65 -28 33 -58 69 -68 80 -10 11 -32 37 -49 57 -27 35 -28 39 -11 44 56 18 150
75 189 114 110 111 152 220 160 413 9 228 -71 401 -236 510 -55 37 -160 80
-215 90 -17 3 -41 9 -55 13 -14 4 -238 9 -497 11 l-473 4 0 -885z m859 454
c23 -6 60 -27 81 -46 102 -92 80 -251 -43 -317 -38 -20 -58 -22 -224 -25
l-183 -4 0 200 c0 179 2 201 17 204 40 8 313 -1 352 -12z"/>
</g>
</svg>
